<svg width="17" height="23" viewBox="0 0 17 23" fill="none" xmlns="http://www.w3.org/2000/svg">
<path d="M16.3628 0H12.1147C11.9457 0 11.7836 0.0660874 11.6641 0.183724C11.5446 0.30136 11.4775 0.46091 11.4775 0.627273C11.4775 0.793636 11.5446 0.953185 11.6641 1.07082C11.7836 1.18846 11.9457 1.25455 12.1147 1.25455H14.8229L11.7324 4.30727C10.9104 3.5694 9.92191 3.0347 8.84848 2.74737C7.77506 2.46004 6.64758 2.42834 5.55924 2.65488C4.47091 2.88142 3.45297 3.35971 2.58958 4.05019C1.7262 4.74068 1.04215 5.62354 0.593998 6.62579C0.145843 7.62804 -0.053554 8.7209 0.012291 9.81403C0.078136 10.9072 0.407332 11.9692 0.972666 12.9123C1.538 13.8554 2.32324 14.6525 3.26346 15.2377C4.20369 15.8229 5.27191 16.1794 6.37982 16.2777V18.8182H3.61857C3.44957 18.8182 3.28749 18.8843 3.16799 19.0019C3.04849 19.1195 2.98136 19.2791 2.98136 19.4455C2.98136 19.6118 3.04849 19.7714 3.16799 19.889C3.28749 20.0066 3.44957 20.0727 3.61857 20.0727H6.37982V22.3727C6.37982 22.5391 6.44695 22.6986 6.56645 22.8163C6.68595 22.9339 6.84803 23 7.01703 23C7.18603 23 7.3481 22.9339 7.4676 22.8163C7.5871 22.6986 7.65424 22.5391 7.65424 22.3727V20.0727H10.4155C10.5845 20.0727 10.7466 20.0066 10.8661 19.889C10.9856 19.7714 11.0527 19.6118 11.0527 19.4455C11.0527 19.2791 10.9856 19.1195 10.8661 19.0019C10.7466 18.8843 10.5845 18.8182 10.4155 18.8182H7.65424V16.2777C8.90066 16.1654 10.0938 15.7266 11.1097 15.0069C12.1256 14.2871 12.9272 13.3128 13.4312 12.185C13.9352 11.0572 14.1232 9.81707 13.9758 8.59354C13.8283 7.37002 13.3507 6.20767 12.5926 5.22727L15.7256 2.14318V4.80909C15.7256 4.97545 15.7927 5.135 15.9122 5.25264C16.0317 5.37028 16.1938 5.43636 16.3628 5.43636C16.5318 5.43636 16.6939 5.37028 16.8134 5.25264C16.9329 5.135 17 4.97545 17 4.80909V0.627273C17 0.46091 16.9329 0.30136 16.8134 0.183724C16.6939 0.0660874 16.5318 0 16.3628 0ZM7.01703 15.0545C5.88277 15.0545 4.77399 14.7234 3.83089 14.1031C2.88779 13.4828 2.15273 12.6011 1.71867 11.5695C1.28461 10.5379 1.17104 9.40283 1.39232 8.30772C1.61361 7.21261 2.1598 6.20668 2.96184 5.41715C3.76388 4.62762 4.78574 4.08994 5.8982 3.87211C7.01067 3.65428 8.16376 3.76608 9.21168 4.19337C10.2596 4.62066 11.1553 5.34425 11.7854 6.27264C12.4156 7.20103 12.7519 8.29253 12.7519 9.40909C12.7519 10.9064 12.1477 12.3423 11.0722 13.401C9.99671 14.4598 8.53802 15.0545 7.01703 15.0545Z" fill="#525252"/>
</svg>
