<svg width="15" height="24" viewBox="0 0 15 24" fill="none" xmlns="http://www.w3.org/2000/svg">
<path fill-rule="evenodd" clip-rule="evenodd" d="M7.25 1.44991C5.71174 1.44991 4.23649 2.06098 3.14878 3.14869C2.06107 4.2364 1.45 5.71166 1.45 7.24991C1.45 8.78817 2.06107 10.2634 3.14878 11.3511C4.23649 12.4388 5.71174 13.0499 7.25 13.0499C8.78826 13.0499 10.2635 12.4388 11.3512 11.3511C12.4389 10.2634 13.05 8.78817 13.05 7.24991C13.05 5.71166 12.4389 4.2364 11.3512 3.14869C10.2635 2.06098 8.78826 1.44991 7.25 1.44991ZM5.72759e-10 7.24991C1.76263e-05 5.84691 0.407118 4.47406 1.17193 3.29785C1.93674 2.12163 3.0264 1.1926 4.30876 0.62342C5.59112 0.0542397 7.01108 -0.130634 8.39643 0.0912193C9.78178 0.313073 11.073 0.932123 12.1135 1.87329C13.154 2.81446 13.899 4.03731 14.2583 5.39353C14.6175 6.74976 14.5756 8.18108 14.1375 9.51393C13.6994 10.8468 12.8839 12.0239 11.7901 12.9024C10.6962 13.781 9.37097 14.3234 7.975 14.4637V17.3999H10.875C11.0673 17.3999 11.2517 17.4763 11.3877 17.6123C11.5236 17.7482 11.6 17.9326 11.6 18.1249C11.6 18.3172 11.5236 18.5016 11.3877 18.6376C11.2517 18.7735 11.0673 18.8499 10.875 18.8499H7.975V22.4749C7.975 22.6672 7.89862 22.8516 7.76265 22.9876C7.62669 23.1235 7.44228 23.1999 7.25 23.1999C7.05772 23.1999 6.87331 23.1235 6.73735 22.9876C6.60138 22.8516 6.525 22.6672 6.525 22.4749V18.8499H3.625C3.43272 18.8499 3.24831 18.7735 3.11235 18.6376C2.97638 18.5016 2.9 18.3172 2.9 18.1249C2.9 17.9326 2.97638 17.7482 3.11235 17.6123C3.24831 17.4763 3.43272 17.3999 3.625 17.3999H6.525V14.4637C4.73669 14.2839 3.07889 13.4464 1.87323 12.1134C0.667557 10.7805 -2.25789e-05 9.04723 5.72759e-10 7.24991Z" fill="#525252"/>
</svg>
