<svg width="20" height="20" viewBox="0 0 20 20" fill="none" xmlns="http://www.w3.org/2000/svg">
<path d="M11.6854 0V1.66276H17.1608L10.7692 8.05522C9.42832 7.01341 7.74076 6.52185 6.05015 6.68065C4.35955 6.83944 2.79303 7.63664 1.66959 8.90992C0.546146 10.1832 -0.0497449 11.8368 0.00325499 13.534C0.0562549 15.2312 0.75416 16.8444 1.95486 18.0451C3.15556 19.2458 4.76876 19.9437 6.46598 19.9967C8.1632 20.0497 9.81681 19.4539 11.0901 18.3304C12.3634 17.207 13.1606 15.6405 13.3194 13.9498C13.4781 12.2592 12.9866 10.5717 11.9448 9.23078L18.3364 2.83832V8.31378H19.9992V0H11.6854ZM6.69713 18.2903C5.71054 18.2903 4.74611 17.9977 3.9258 17.4496C3.10548 16.9015 2.46612 16.1225 2.08857 15.211C1.71102 14.2995 1.61224 13.2965 1.80471 12.3289C1.99718 11.3613 2.47227 10.4724 3.16989 9.7748C3.86751 9.07718 4.75634 8.6021 5.72396 8.40962C6.69159 8.21715 7.69457 8.31594 8.60605 8.69349C9.51754 9.07104 10.2966 9.71039 10.8447 10.5307C11.3928 11.351 11.6854 12.3155 11.6854 13.302C11.6839 14.6245 11.1578 15.8924 10.2227 16.8276C9.28752 17.7627 8.01962 18.2888 6.69713 18.2903Z" fill="#525252"/>
</svg>
