<svg xmlns="http://www.w3.org/2000/svg" width="50" height="50" viewBox="0 0 50 50" fill="none"><path d="M25 9.91522e-05C18.3694 9.91522e-05 12.0109 2.63414 7.32235 7.32245C2.63404 12.0112 0 18.3701 0 25.0001C0 31.6301 2.63404 37.9892 7.32235 42.6777C12.0107 47.3661 18.37 50.0001 25 50.0001C31.63 50.0001 37.9891 47.3661 42.6776 42.6777C47.366 37.9894 50 31.6301 50 25.0001C50 20.6118 48.8447 16.3006 46.6506 12.5C44.4564 8.69954 41.3004 5.54357 37.4999 3.34942C33.6994 1.15526 29.3882 0 24.9999 0L25 9.91522e-05ZM25 47.2225C19.1061 47.2225 13.4543 44.8814 9.28664 40.7137C5.11917 36.5462 2.77779 30.8942 2.77779 25.0003C2.77779 19.1068 5.11927 13.4546 9.28664 9.28694C13.454 5.11927 19.1061 2.77809 25 2.77809C30.8939 2.77809 36.5457 5.11956 40.7134 9.28694C44.881 13.4543 47.2222 19.1068 47.2222 25.0003C47.2156 30.8919 44.8722 36.54 40.7059 40.7067C36.54 44.873 30.8914 47.2164 24.9995 47.223L25 47.2225ZM25 5.55568C19.8428 5.55568 14.8968 7.6041 11.2509 11.2507C7.60509 14.8974 5.55587 19.8433 5.55587 24.9998C5.55587 30.157 7.6043 35.103 11.2509 38.7489C14.8976 42.3947 19.8431 44.4439 25 44.4439C30.1569 44.4439 35.1032 42.3955 38.7491 38.7489C42.3949 35.1022 44.4441 30.1567 44.4441 24.9998C44.4383 19.8445 42.3879 14.9025 38.7424 11.2567C35.0974 7.61124 30.1549 5.56084 24.9993 5.55498L25 5.55568ZM27.222 38.8891H22.7779V20.5557H27.2224L27.222 38.8891ZM25 15.5557C24.4106 15.5557 23.8455 15.3216 23.4286 14.9047C23.012 14.4881 22.7779 13.9227 22.7779 13.3332C22.7779 12.7442 23.012 12.1788 23.4286 11.7622C23.8455 11.3452 24.4106 11.1112 25 11.1112C25.5894 11.1112 26.1545 11.3452 26.5714 11.7622C26.988 12.1788 27.2221 12.7442 27.2221 13.3332C27.2221 13.9227 26.988 14.4881 26.5714 14.9047C26.1545 15.3216 25.5894 15.5557 25 15.5557Z" fill="#8A2678"></path></svg>