<svg width="46" height="46" viewBox="0 0 46 46" fill="none" xmlns="http://www.w3.org/2000/svg">
<path d="M22.9799 0.256226C10.5974 0.256226 0.559753 10.2939 0.559753 22.6764C0.559753 35.0588 10.5974 45.0965 22.9799 45.0965C35.3623 45.0965 45.4 35.0588 45.4 22.6764C45.4 10.2939 35.3623 0.256226 22.9799 0.256226ZM17.4916 31.969H12.9515V17.3586H17.4916V31.969ZM15.1936 15.565C13.7596 15.565 12.8324 14.5491 12.8324 13.2926C12.8324 12.0104 13.7876 11.0249 15.2519 11.0249C16.7163 11.0249 17.6131 12.0104 17.6411 13.2926C17.6411 14.5491 16.7163 15.565 15.1936 15.565ZM34.0732 31.969H29.5331V23.8721C29.5331 21.9874 28.8745 20.7076 27.2327 20.7076C25.9786 20.7076 25.2336 21.574 24.9043 22.4078C24.7828 22.7044 24.7525 23.1248 24.7525 23.5428V31.9667H20.2101V22.0178C20.2101 20.1938 20.1517 18.6688 20.091 17.3562H24.0355L24.2434 19.3857H24.3344C24.9323 18.4329 26.3966 17.0269 28.8465 17.0269C31.8335 17.0269 34.0732 19.0284 34.0732 23.3303V31.969Z" fill="#525252"/>
</svg>
