<svg width="119" height="18" viewBox="0 0 119 18" fill="none" xmlns="http://www.w3.org/2000/svg">
<path d="M0 0.959454H4.39042L9.02748 12.2433H9.22481L13.8619 0.959454H18.2523V17.754H14.7992V6.82278H14.6594L10.3019 17.672H7.95044L3.59291 6.78178H3.45314V17.754H0V0.959454Z" fill="#7F2F75"/>
<path d="M26.3625 18C25.0854 18 23.9809 17.7294 23.0491 17.1882C22.1228 16.6415 21.4075 15.8815 20.9032 14.9084C20.399 13.9298 20.1468 12.7954 20.1468 11.5052C20.1468 10.2041 20.399 9.06697 20.9032 8.09385C21.4075 7.11526 22.1228 6.35535 23.0491 5.81412C23.9809 5.26743 25.0854 4.99408 26.3625 4.99408C27.6396 4.99408 28.7413 5.26743 29.6676 5.81412C30.5994 6.35535 31.3174 7.11526 31.8217 8.09385C32.326 9.06697 32.5781 10.2041 32.5781 11.5052C32.5781 12.7954 32.326 13.9298 31.8217 14.9084C31.3174 15.8815 30.5994 16.6415 29.6676 17.1882C28.7413 17.7294 27.6396 18 26.3625 18ZM26.3789 15.2939C26.9599 15.2939 27.445 15.1298 27.8342 14.8018C28.2233 14.4683 28.5166 14.0146 28.7139 13.4405C28.9167 12.8665 29.0181 12.2132 29.0181 11.4806C29.0181 10.7481 28.9167 10.0948 28.7139 9.52073C28.5166 8.9467 28.2233 8.49294 27.8342 8.15945C27.445 7.82597 26.9599 7.65923 26.3789 7.65923C25.7924 7.65923 25.2991 7.82597 24.899 8.15945C24.5044 8.49294 24.2056 8.9467 24.0028 9.52073C23.8055 10.0948 23.7068 10.7481 23.7068 11.4806C23.7068 12.2132 23.8055 12.8665 24.0028 13.4405C24.2056 14.0146 24.5044 14.4683 24.899 14.8018C25.2991 15.1298 25.7924 15.2939 26.3789 15.2939Z" fill="#7F2F75"/>
<path d="M34.3925 17.754V5.15809H37.7881V7.35581H37.9196C38.1498 6.57403 38.5363 5.9836 39.0789 5.58451C39.6215 5.17996 40.2464 4.97768 40.9534 4.97768C41.1288 4.97768 41.318 4.98861 41.5208 5.01048C41.7236 5.03235 41.9017 5.06242 42.0552 5.10068V8.20046C41.8907 8.15125 41.6633 8.10752 41.3728 8.06925C41.0823 8.03098 40.8164 8.01185 40.5753 8.01185C40.06 8.01185 39.5996 8.12392 39.194 8.34806C38.7939 8.56674 38.476 8.87289 38.2403 9.26651C38.0101 9.66014 37.895 10.1139 37.895 10.6278V17.754H34.3925Z" fill="#7F2F75"/>
<path d="M48.5703 18C47.2713 18 46.1531 17.7376 45.2159 17.2128C44.2841 16.6825 43.566 15.9335 43.0618 14.9658C42.5575 13.9927 42.3054 12.8419 42.3054 11.5134C42.3054 10.2178 42.5575 9.08064 43.0618 8.10205C43.566 7.12346 44.2758 6.36082 45.1912 5.81412C46.112 5.26743 47.1918 4.99408 48.4306 4.99408C49.2637 4.99408 50.0393 5.12802 50.7573 5.3959C51.4808 5.65831 52.1112 6.05467 52.6483 6.58497C53.191 7.11526 53.613 7.78223 53.9145 8.58588C54.2159 9.38406 54.3667 10.3189 54.3667 11.3904V12.3499H43.7031V10.185H51.0697C51.0697 9.682 50.9601 9.23645 50.7409 8.84829C50.5216 8.46014 50.2174 8.15672 49.8283 7.93804C49.4446 7.7139 48.9979 7.60182 48.4881 7.60182C47.9564 7.60182 47.4851 7.72483 47.074 7.97084C46.6684 8.21139 46.3505 8.53667 46.1202 8.9467C45.89 9.35125 45.7722 9.80228 45.7667 10.2998V12.3581C45.7667 12.9813 45.8818 13.5198 46.112 13.9736C46.3477 14.4273 46.6793 14.7772 47.1069 15.0232C47.5344 15.2692 48.0414 15.3923 48.6279 15.3923C49.017 15.3923 49.3733 15.3376 49.6967 15.2282C50.0201 15.1189 50.2969 14.9549 50.5271 14.7362C50.7573 14.5175 50.9327 14.2497 51.0533 13.9326L54.2927 14.1458C54.1282 14.9221 53.7911 15.6 53.2814 16.1795C52.7771 16.7535 52.1249 17.2018 51.3246 17.5244C50.5299 17.8415 49.6118 18 48.5703 18Z" fill="#7F2F75"/>
<path d="M62.9804 5.15809V7.78223H55.1862V5.15809H62.9804ZM56.9703 17.754V4.24784C56.9703 3.33485 57.1485 2.57768 57.5047 1.97631C57.8665 1.37494 58.3598 0.923917 58.9847 0.623234C59.6095 0.322551 60.3193 0.172209 61.1141 0.172209C61.6512 0.172209 62.1418 0.213212 62.5858 0.295217C63.0352 0.377221 63.3696 0.451025 63.5888 0.516629L62.964 3.14078C62.827 3.09704 62.657 3.05604 62.4542 3.01777C62.2569 2.9795 62.0541 2.96037 61.8458 2.96037C61.3306 2.96037 60.9716 3.08064 60.7688 3.32119C60.566 3.55626 60.4646 3.88702 60.4646 4.31344V17.754H56.9703Z" fill="#7F2F75"/>
<path d="M69.9601 18C68.6611 18 67.5429 17.7376 66.6057 17.2128C65.6739 16.6825 64.9558 15.9335 64.4516 14.9658C63.9473 13.9927 63.6952 12.8419 63.6952 11.5134C63.6952 10.2178 63.9473 9.08064 64.4516 8.10205C64.9558 7.12346 65.6656 6.36082 66.581 5.81412C67.5018 5.26743 68.5816 4.99408 69.8204 4.99408C70.6535 4.99408 71.4291 5.12802 72.1471 5.3959C72.8706 5.65831 73.501 6.05467 74.0381 6.58497C74.5807 7.11526 75.0028 7.78223 75.3043 8.58588C75.6057 9.38406 75.7565 10.3189 75.7565 11.3904V12.3499H65.0928V10.185H72.4595C72.4595 9.682 72.3499 9.23645 72.1307 8.84829C71.9114 8.46014 71.6072 8.15672 71.2181 7.93804C70.8344 7.7139 70.3877 7.60182 69.8779 7.60182C69.3462 7.60182 68.8749 7.72483 68.4638 7.97084C68.0582 8.21139 67.7403 8.53667 67.51 8.9467C67.2798 9.35125 67.162 9.80228 67.1565 10.2998V12.3581C67.1565 12.9813 67.2716 13.5198 67.5018 13.9736C67.7375 14.4273 68.0691 14.7772 68.4967 15.0232C68.9242 15.2692 69.4312 15.3923 70.0177 15.3923C70.4068 15.3923 70.7631 15.3376 71.0865 15.2282C71.4099 15.1189 71.6867 14.9549 71.9169 14.7362C72.1471 14.5175 72.3225 14.2497 72.4431 13.9326L75.6825 14.1458C75.518 14.9221 75.1809 15.6 74.6712 16.1795C74.1669 16.7535 73.5147 17.2018 72.7144 17.5244C71.9196 17.8415 71.0015 18 69.9601 18Z" fill="#7F2F75"/>
<path d="M77.5791 17.754V5.15809H80.9746V7.35581H81.1062C81.3364 6.57403 81.7228 5.9836 82.2655 5.58451C82.8081 5.17996 83.4329 4.97768 84.14 4.97768C84.3154 4.97768 84.5045 4.98861 84.7073 5.01048C84.9101 5.03235 85.0883 5.06242 85.2417 5.10068V8.20046C85.0773 8.15125 84.8498 8.10752 84.5593 8.06925C84.2688 8.03098 84.003 8.01185 83.7618 8.01185C83.2466 8.01185 82.7862 8.12392 82.3806 8.34806C81.9804 8.56674 81.6625 8.87289 81.4268 9.26651C81.1966 9.66014 81.0815 10.1139 81.0815 10.6278V17.754H77.5791Z" fill="#7F2F75"/>
<path d="M93.9398 5.15809V7.78223H86.3347V5.15809H93.9398ZM88.0612 2.14032H91.5637V13.8834C91.5637 14.2059 91.613 14.4574 91.7117 14.6378C91.8103 14.8128 91.9474 14.9358 92.1228 15.0068C92.3036 15.0779 92.5119 15.1134 92.7476 15.1134C92.9121 15.1134 93.0765 15.0998 93.2409 15.0724C93.4054 15.0396 93.5314 15.015 93.6191 14.9986L94.17 17.5982C93.9946 17.6528 93.7479 17.7157 93.43 17.7868C93.1121 17.8633 92.7257 17.9098 92.2708 17.9262C91.4267 17.959 90.6867 17.8469 90.0509 17.59C89.4206 17.333 88.93 16.9339 88.5792 16.3927C88.2284 15.8515 88.0557 15.1681 88.0612 14.3426V2.14032Z" fill="#7F2F75"/>
<path d="M95.7583 17.754V5.15809H99.2607V17.754H95.7583ZM97.5177 3.5344C96.997 3.5344 96.5503 3.36219 96.1776 3.01777C95.8103 2.66788 95.6267 2.24966 95.6267 1.7631C95.6267 1.282 95.8103 0.869249 96.1776 0.52483C96.5503 0.174943 96.997 0 97.5177 0C98.0384 0 98.4824 0.174943 98.8496 0.52483C99.2224 0.869249 99.4087 1.282 99.4087 1.7631C99.4087 2.24966 99.2224 2.66788 98.8496 3.01777C98.4824 3.36219 98.0384 3.5344 97.5177 3.5344Z" fill="#7F2F75"/>
<path d="M105.106 0.959454V17.754H101.603V0.959454H105.106Z" fill="#7F2F75"/>
<path d="M113.204 18C111.905 18 110.786 17.7376 109.849 17.2128C108.917 16.6825 108.199 15.9335 107.695 14.9658C107.191 13.9927 106.939 12.8419 106.939 11.5134C106.939 10.2178 107.191 9.08064 107.695 8.10205C108.199 7.12346 108.909 6.36082 109.825 5.81412C110.745 5.26743 111.825 4.99408 113.064 4.99408C113.897 4.99408 114.673 5.12802 115.391 5.3959C116.114 5.65831 116.744 6.05467 117.282 6.58497C117.824 7.11526 118.246 7.78223 118.548 8.58588C118.849 9.38406 119 10.3189 119 11.3904V12.3499H108.336V10.185H115.703C115.703 9.682 115.593 9.23645 115.374 8.84829C115.155 8.46014 114.851 8.15672 114.462 7.93804C114.078 7.7139 113.631 7.60182 113.121 7.60182C112.59 7.60182 112.118 7.72483 111.707 7.97084C111.302 8.21139 110.984 8.53667 110.754 8.9467C110.523 9.35125 110.406 9.80228 110.4 10.2998V12.3581C110.4 12.9813 110.515 13.5198 110.745 13.9736C110.981 14.4273 111.313 14.7772 111.74 15.0232C112.168 15.2692 112.675 15.3923 113.261 15.3923C113.65 15.3923 114.007 15.3376 114.33 15.2282C114.653 15.1189 114.93 14.9549 115.16 14.7362C115.391 14.5175 115.566 14.2497 115.687 13.9326L118.926 14.1458C118.762 14.9221 118.424 15.6 117.915 16.1795C117.41 16.7535 116.758 17.2018 115.958 17.5244C115.163 17.8415 114.245 18 113.204 18Z" fill="#7F2F75"/>
</svg>
