<svg width="46" height="45" viewBox="0 0 46 45" fill="none" xmlns="http://www.w3.org/2000/svg">
<path d="M23.0719 0C10.6907 0 0.651733 10.039 0.651733 22.4201C0.651733 34.8012 10.6907 44.8403 23.0719 44.8403C35.453 44.8403 45.492 34.8012 45.492 22.4201C45.492 10.039 35.453 0 23.0719 0ZM33.8465 16.9002C33.8615 17.1354 33.8615 17.3806 33.8615 17.6208C33.8615 24.9674 28.2665 33.43 18.0423 33.43C14.8895 33.43 11.9669 32.5142 9.50468 30.9378C9.95509 30.9878 10.3855 31.0078 10.8459 31.0078C13.4482 31.0078 15.8404 30.127 17.7471 28.6357C15.3049 28.5857 13.253 26.9842 12.5524 24.7823C13.4082 24.9074 14.1789 24.9074 15.0597 24.6822C13.8022 24.4267 12.6719 23.7437 11.8609 22.7493C11.0499 21.7549 10.6081 20.5104 10.6107 19.2273V19.1572C11.3463 19.5726 12.2121 19.8278 13.1179 19.8628C12.3565 19.3554 11.732 18.6678 11.2998 17.8612C10.8677 17.0546 10.6413 16.1538 10.6407 15.2387C10.6407 14.2028 10.9109 13.2569 11.3964 12.4362C12.7921 14.1544 14.5339 15.5597 16.5083 16.5607C18.4827 17.5617 20.6457 18.1361 22.8567 18.2464C22.071 14.468 24.8935 11.4102 28.2865 11.4102C29.888 11.4102 31.3293 12.0808 32.3452 13.1618C33.6013 12.9266 34.8024 12.4562 35.8734 11.8256C35.458 13.1118 34.5872 14.1977 33.4312 14.8834C34.5522 14.7633 35.6331 14.453 36.634 14.0176C35.8784 15.1286 34.9325 16.1145 33.8465 16.9002Z" fill="#525252"/>
</svg>
